**ABCDEFGHIJKLMNOPQRSTUVWXYZabcdefghijklmnopqrstuvwxyz**************************
**PARASOLID !"#$%&'()*+,-./:;<=>?@[\]^_`{|}~0123456789**************************
**PART1;
MC=AMD64;
MC_MODEL=Intel64 Family 6 Model 61 Stepping 4, GenuineIntel;
MC_ID=unknown;
OS=Windows_NT;
OS_RELEASE=unknown;
FRU=Parasolid Version 30.0, build 310,  6- 8-2018;
APPL=SOLIDWORKS 2018-2018316;
SITE=;
USER=unknown;
FORMAT=text;
GUISE=transmit;
KEY=Metric - Spur gear 1.5M 10T 20PA 5FW ---S10N75H50L1.5N;
FILE=Metric - Spur gear 1.5M 10T 20PA 5FW ---S10N75H50L1.5N.x_t;
DATE=Sun Sep 11 01:12:23 2022;
**PART2;
SCH=SCH_3000310_30000;
USFLD_SIZE=0;
**PART3;
**END_OF_HEADER*****************************************************************
T51 : TRANSMIT FILE created by modeller version 300031023 SCH_3000310_30000_1300
6205 0 12 33 CCCCCCI4 mesh1006 0 I8 polyline1008 0 CCCCCCCDI5 owner1040 0 CCCCCC
I13 boundary_mesh1006 0 I17 boundary_polyline1008 0 CCCA16 index_map_offset0 0 1
 dA9 index_map82 0 A17 node_id_index_map82 0 A20 schema_embedding_map82 0 A5 chi
ld12 0 A14 lowest_node_id0 0 1 dZ1 4757 0 2 0 0 0 0 0 0 1e3 1e-8 0 3 0 1 0 1 1 4
 5 6 7 0 0 8 9 10 0 0 0 0 0 0 70 11 CI9 list_type0 0 1 uI10 notransmit0 0 1 lCCC
DCCDI12 finger_index0 0 1 dI12 finger_block1012 0 CZ2 0 4 T1 0 0 2 20 1 11 11 13
 255 4 29 0 1 0 12 0 0 13 0 50 255 5 58 0 12 14 0 0 +.005 0 0 -1 0 0 0 0 1 31 25
5 6 2167 0 15 16 0 0 +0 0 0 1 0 0 0 0 -1 .00105 29 255 7 604 0 10 17 0 0 .000875
696030968587 -.00555540569727773 19 8 CCCCCCCA5 owner12 0 Z8 33 0 1 13 0 18 V0 1
6 255 9 609 0 ?19 0 20 16 0 0 1 18 255 10 602 0 21 0 22 7 ?1 17 255 21 0 23 24 2
5 10 26 27 0 28 -18 22 588 0 29 10 30 17 ?1 17 29 0 31 32 33 22 34 35 0 36 -18 3
0 574 0 37 22 38 39 ?1 29 17 590 0 22 39 7 0 .003973838510321715 -.0039796964072
5069 29 39 576 0 30 40 17 0 -.00501289983358323 -.00254955118765269 29 40 562 0
 38 41 39 0 -.002556932568401165 -.00500913883223947 18 38 560 0 42 30 43 40 ?1
 29 41 548 0 43 44 40 0 .002556932568401195 .00500913883223945 18 43 546 0 45 38
 46 41 ?1 29 44 534 0 46 47 41 0 -.000875696030968549 .00555540569727773 18 46 5
32 0 48 43 49 44 ?1 29 47 520 0 49 50 44 0 -.00555410974453518 .0008838783545597
69 18 49 518 0 51 46 52 47 ?1 29 50 506 0 52 53 47 0 -.003973838510321685 .00397
969640725072 18 52 504 0 54 49 55 50 ?1 29 53 282 0 55 56 50 0 .0050128998335832
5 .00254955118765265 18 55 280 0 57 52 58 53 ?1 29 56 94 0 58 59 53 0 .005554109
74453518 -.000883878354559808 18 58 92 0 60 55 61 56 ?1 29 59 247 0 61 62 56 .00
5 .00861539640659838 -.00260287240508857 18 61 183 0 63 58 64 59 ?1 29 62 248 0
 64 65 59 0 .00861539640659838 -.002602872405088565 18 64 178 0 66 61 67 62 ?1 2
9 65 249 0 67 68 62 .005 .00861539640659838 .00260287240508857 18 67 175 0 69 64
 70 65 ?1 29 68 250 0 70 71 65 0 .00861539640659838 .002602872405088565 18 70 18
6 0 72 67 73 68 ?1 29 71 252 0 74 75 68 0 .00555410974453518 .000883878354559808
 18 74 179 0 76 77 78 71 ?1 29 75 255 0 73 79 71 .005 .00555410974453518 -.00088
3878354559808 18 73 177 0 80 70 77 75 ?1 29 79 256 0 77 81 75 .005 .005554109744
53518 .000883878354559808 18 77 176 0 82 73 74 79 ?1 29 81 439 0 78 83 79 .005 .
00849993211952504 .002958234940545865 18 78 375 0 84 74 85 81 ?1 29 83 440 0 85
 86 81 0 .00849993211952504 .00295823494054587 18 85 370 0 87 78 88 83 ?1 29 86
 441 0 88 89 83 .005 .00544007209290484 .00716977096035835 18 88 367 0 90 85 91
 86 ?1 29 89 442 0 91 92 86 0 .00544007209290484 .00716977096035835 18 91 378 0
 93 88 94 89 ?1 29 92 444 0 95 96 89 0 .00397383851032166 .00397969640725075 18
 95 371 0 97 98 99 92 ?1 29 96 447 0 94 100 92 .005 .00501289983358325 .00254955
118765265 18 94 369 0 101 91 98 96 ?1 29 100 448 0 98 102 96 .005 .0039738385103
2166 .00397969640725075 18 98 368 0 103 94 95 100 ?1 29 102 1776 0 99 104 100 .0
05 .0001868251409715365 -.0089980607003232 18 99 893 0 105 95 106 102 ?1 29 104
 1777 0 106 107 102 0 .000186825140971538 -.0089980607003232 18 106 888 0 25 99
 108 104 ?1 29 107 1778 0 108 109 104 .005 .00513778266486016 -.0073893970855992
3 18 108 885 0 110 106 111 107 ?1 29 109 1779 0 111 112 107 0 .00513778266486016
 -.00738939708559923 18 111 896 0 19 108 113 109 ?1 29 112 1780 0 113 114 109 .0
05 .00544007209290494 -.00716977096035827 18 113 986 0 115 111 116 112 ?1 29 114
 1781 0 116 117 112 0 .00544007209290494 -.00716977096035827 18 116 981 0 33 113
 118 114 ?1 29 117 1782 0 118 119 114 .005 .00849993211952509 -.0029582349405457
4 18 118 978 0 120 116 121 117 ?1 29 119 1783 0 121 122 117 0 .00849993211952509
 -.00295823494054574 18 121 989 0 123 118 124 119 ?1 29 122 1784 0 124 125 119 .
005 -.00849993211952502 -.00295823494054593 18 124 1079 0 126 121 127 122 ?1 29
 125 1785 0 127 128 122 0 -.00849993211952502 -.00295823494054593 18 127 1074 0
 129 124 130 125 ?1 29 128 1786 0 130 131 125 .005 -.00544007209290478 -.0071697
7096035839 18 130 1071 0 132 127 133 128 ?1 29 131 1787 0 133 134 128 0 -.005440
07209290478 -.00716977096035839 18 133 1082 0 135 130 136 131 ?1 29 134 1788 0 1
36 137 131 .005 -.00513778266486001 -.00738939708559933 18 136 1172 0 138 133 13
9 134 ?1 29 137 1789 0 139 140 134 0 -.00513778266486001 -.00738939708559933 18
 139 1167 0 141 136 142 137 ?1 29 140 1790 0 142 143 137 .005 -.0001868251409713
475 -.0089980607003232 18 142 1164 0 144 139 145 140 ?1 29 143 1791 0 145 146 14
0 0 -.0001868251409713475 -.0089980607003232 18 145 1175 0 147 142 148 143 ?1 29
 146 1792 0 148 149 143 .005 .00513778266486006 .0073893970855993 18 148 1265 0
 150 145 151 146 ?1 29 149 1793 0 151 152 146 0 .00513778266486005 .007389397085
5993 18 151 1260 0 153 148 154 149 ?1 29 152 1794 0 154 155 149 .005 .0001868251
409714095 .0089980607003232 18 154 1257 0 156 151 157 152 ?1 29 155 1795 0 157 1
58 152 0 .00018682514097141 .0089980607003232 18 157 1268 0 159 154 160 155 ?1 2
9 158 1796 0 160 161 155 .005 -.0001868251409714735 .0089980607003232 18 160 135
8 0 162 157 163 158 ?1 29 161 1797 0 163 164 158 0 -.000186825140971475 .0089980
607003232 18 163 1353 0 165 160 166 161 ?1 29 164 1798 0 166 167 161 .005 -.0051
3778266486011 .00738939708559926 18 166 1350 0 168 163 169 164 ?1 29 167 1799 0
 169 170 164 0 -.00513778266486011 .00738939708559926 18 169 1361 0 171 166 172
 167 ?1 29 170 1800 0 172 173 167 .005 -.0086153964065984 .00260287240508851 18
 172 1451 0 174 169 175 170 ?1 29 173 1801 0 175 176 170 0 -.0086153964065984 .0
02602872405088505 18 175 1446 0 177 172 178 173 ?1 29 176 1802 0 178 179 173 .00
5 -.00861539640659837 -.00260287240508863 18 178 1443 0 180 175 181 176 ?1 29 17
9 1803 0 181 182 176 0 -.00861539640659836 -.002602872405088625 18 181 1454 0 18
3 178 184 179 ?1 29 182 1804 0 184 185 179 .005 -.00544007209290489 .00716977096
035831 18 184 1544 0 186 181 187 182 ?1 29 185 1805 0 187 188 182 0 -.0054400720
9290489 .00716977096035831 18 187 1539 0 189 184 190 185 ?1 29 188 1806 0 190 19
1 185 .005 -.00849993211952506 .002958234940545805 18 190 1536 0 192 187 193 188
 ?1 29 191 1807 0 193 194 188 0 -.00849993211952507 .002958234940545805 18 193 1
547 0 195 190 196 191 ?1 29 194 1809 0 197 198 191 0 -.002556932568401235 .00500
913883223944 18 197 1354 0 199 200 201 194 ?1 29 198 1812 0 202 203 194 .005 -.0
00875696030968549 .00555540569727774 18 202 1352 0 204 205 200 198 ?1 29 203 181
3 0 200 206 198 .005 -.002556932568401235 .00500913883223944 18 200 1351 0 207 2
02 197 203 ?1 29 206 1817 0 205 208 203 0 .000875696030968508 .00555540569727774
 18 205 1261 0 209 210 202 206 ?1 29 208 1820 0 196 211 206 .005 .00255693256840
1195 .00500913883223945 18 196 1259 0 212 193 210 208 ?1 29 211 1821 0 210 213 2
08 .005 .000875696030968508 .00555540569727774 18 210 1258 0 214 196 205 211 ?1
 29 213 1825 0 215 216 211 0 -.00501289983358326 .002549551187652615 18 215 1540
 0 217 218 219 213 ?1 29 216 1828 0 201 220 213 .005 -.003973838510321685 .00397
969640725072 18 201 1538 0 221 197 218 216 ?1 29 220 1829 0 218 222 216 .005 -.0
0501289983358326 .002549551187652615 18 218 1537 0 223 201 215 220 ?1 29 222 183
3 0 224 225 220 0 -.00555410974453517 -.000883878354559847 18 224 1447 0 226 227
 228 222 ?1 29 225 1836 0 219 229 222 .005 -.00555410974453518 .0008838783545597
69 18 219 1445 0 230 215 227 225 ?1 29 229 1837 0 227 231 225 .005 -.00555410974
453517 -.000883878354559847 18 227 1444 0 232 219 224 229 ?1 29 231 1841 0 233 2
34 229 0 .00255693256840127 -.00500913883223942 18 233 889 0 235 236 237 231 ?1
 29 234 1844 0 238 239 231 .005 .000875696030968587 -.00555540569727773 18 238 8
87 0 240 241 236 234 ?1 29 239 1845 0 236 242 234 .005 .00255693256840127 -.0050
0913883223942 18 236 886 0 243 238 233 239 ?1 29 242 1849 0 244 245 239 0 .00501
289983358328 -.002549551187652575 18 244 982 0 246 247 0 242 ?1 29 245 1852 0 23
7 248 242 .005 .003973838510321715 -.00397969640725069 18 237 980 0 249 233 247
 245 ?1 29 248 1853 0 247 250 245 .005 .00501289983358328 -.002549551187652575 1
8 247 979 0 251 237 244 248 ?1 29 250 1857 0 252 253 248 0 -.00397383851032163 -
.00397969640725078 18 252 1075 0 254 255 256 250 ?1 29 253 1860 0 228 257 250 .0
05 -.00501289983358323 -.00254955118765269 18 228 1073 0 258 224 255 253 ?1 29 2
57 1861 0 255 259 253 .005 -.00397383851032163 -.00397969640725078 18 255 1072 0
 260 228 252 257 ?1 29 259 1865 0 241 261 257 0 -.000875696030968471 -.005555405
69727775 18 241 1168 0 262 263 238 259 ?1 29 261 1868 0 256 264 259 .005 -.00255
6932568401165 -.00500913883223947 18 256 1166 0 265 252 263 261 ?1 29 264 1869 0
 263 0 261 .005 -.000875696030968471 -.00555540569727775 18 263 1165 0 266 256 2
41 264 ?1 17 266 0 267 262 144 263 268 269 0 270 +15 255 267 1189 0 144 271 0 17
 262 0 267 147 266 241 270 272 0 273 +17 144 0 267 266 147 142 274 275 0 268 +17
 268 0 276 277 278 142 266 269 0 279 -16 269 1124 0 ?266 280 281 282 0 0 1 17 27
0 0 283 265 273 263 262 272 0 278 -15 283 1205 0 273 284 0 17 265 0 283 285 270
 256 278 280 0 286 +17 273 0 283 270 285 241 287 288 0 289 -16 272 1153 0 ?262 2
90 291 292 0 0 1 17 278 0 276 268 293 263 265 280 0 0 -15 276 836 0 294 12 0 17
 293 0 276 278 295 256 138 281 0 0 -16 280 1127 0 ?265 291 269 296 0 0 1 16 291
 1130 0 ?285 272 280 297 0 0 1 31 296 1772 0 280 282 298 0 +.005 0 0 -1 0 0 0 -.
951056516295157 .3090169943749385 .005624 31 282 1773 0 269 299 296 0 +.005 .001
854226598729985 -.00679940024544115 -1 0 0 0 -.951056516295157 .3090169943749385
 .003 31 298 1771 0 300 296 301 0 +0 -.00549668801849866 -.004410943300977265 -1
 0 0 0 -.951056516295157 .3090169943749385 .003 16 300 1131 0 ?302 288 303 298 0
 0 1 31 301 1768 0 288 298 297 0 +0 0 0 -1 0 0 0 -.951056516295157 .309016994374
9385 .005624 16 288 1150 0 ?287 281 300 301 0 0 1 30 255 297 1767 0 291 301 292
 0 +.005 -.002556932568401165 -.00500913883223947 -1 0 0 30 292 1766 0 272 297 3
04 0 +.005 -.000875696030968471 -.00555540569727775 -1 0 0 31 304 1763 0 305 292
 306 0 +.005 -.00703960144075529 -.000337655937988684 -1 0 0 0 -.58778525229248
 .809016994374942 .003 16 305 1027 0 ?126 307 308 304 0 0 1 31 306 1761 0 307 30
4 309 0 +.005 -.002496486358909525 -.00659071739926099 -1 0 0 0 -.58778525229248
 .809016994374942 .003 16 307 1031 0 ?260 310 305 306 0 0 1 31 309 1760 0 310 30
6 311 0 +.005 0 0 -1 0 0 0 -.58778525229248 .809016994374942 .005624 16 310 1034
 0 ?258 312 307 309 0 0 1 31 311 1759 0 290 309 313 0 +0 -.00703960144075529 -.0
00337655937988684 -1 0 0 0 -.58778525229248 .809016994374942 .003 16 290 1038 0
 ?314 308 272 311 0 0 1 31 313 1756 0 308 311 315 0 +0 0 0 -1 0 0 0 -.5877852522
9248 .809016994374942 .005624 16 308 1057 0 ?316 305 290 313 0 0 1 30 315 1755 0
 312 313 317 0 +.005 -.00501289983358323 -.00254955118765269 -1 0 0 16 312 1037
 0 ?318 319 310 315 0 0 1 30 317 1754 0 319 315 320 0 +.005 -.00397383851032163
 -.00397969640725078 -1 0 0 16 319 1060 0 ?254 321 312 317 0 0 1 31 320 1751 0 3
22 317 323 0 +.005 .002496486358909665 -.00659071739926094 -1 0 0 0 -.5877852522
92463 -.809016994374955 .003 16 322 934 0 ?115 324 325 320 0 0 1 31 323 1749 0 3
24 320 326 0 +.005 .00703960144075529 -.0003376559379885295 -1 0 0 0 -.587785252
292463 -.809016994374955 .003 16 324 938 0 ?251 327 322 323 0 0 1 31 326 1748 0
 327 323 328 0 +.005 0 0 -1 0 0 0 -.587785252292463 -.809016994374955 .005624 16
 327 941 0 ?249 329 324 326 0 0 1 31 328 1747 0 35 326 330 0 +0 .002496486358909
665 -.00659071739926094 -1 0 0 0 -.587785252292463 -.809016994374955 .003 16 35
 945 0 ?34 325 15 328 0 0 1 31 330 1744 0 325 328 331 0 +0 0 0 -1 0 0 0 -.587785
252292463 -.809016994374955 .005624 16 325 964 0 ?332 322 35 330 0 0 1 30 331 17
43 0 329 330 333 0 +.005 .003973838510321715 -.00397969640725069 -1 0 0 16 329 9
44 0 ?36 334 327 331 0 0 1 30 333 1742 0 334 331 335 0 +.005 .00501289983358328
 -.002549551187652575 -1 0 0 16 334 967 0 ?246 27 329 333 0 0 1 31 335 1739 0 33
6 333 337 0 +.005 -.00185422659872984 -.00679940024544119 -1 0 0 0 -.95105651629
515 -.309016994374958 .003 16 336 841 0 ?105 338 339 335 0 0 1 31 337 1737 0 338
 335 340 0 +.005 .00549668801849875 -.00441094330097715 -1 0 0 0 -.9510565162951
5 -.309016994374958 .003 16 338 845 0 ?243 341 336 337 0 0 1 31 340 1736 0 341 3
37 342 0 +.005 0 0 -1 0 0 0 -.95105651629515 -.309016994374958 .005624 16 341 84
8 0 ?240 343 338 340 0 0 1 31 342 1735 0 27 340 344 0 +0 -.00185422659872984 -.0
0679940024544119 -1 0 0 0 -.95105651629515 -.309016994374958 .003 16 27 852 0 ?2
6 339 334 342 0 0 1 31 344 1732 0 339 342 345 0 +0 0 0 -1 0 0 0 -.95105651629515
 -.309016994374958 .005624 16 339 871 0 ?346 336 27 344 0 0 1 30 345 1731 0 343
 344 347 0 +.005 .000875696030968587 -.00555540569727773 -1 0 0 16 343 851 0 ?28
 303 341 345 0 0 1 30 347 1730 0 303 345 348 0 +.005 .00255693256840127 -.005009
13883223942 -1 0 0 16 303 874 0 ?235 300 343 347 0 0 1 31 348 1727 0 349 347 350
 0 +.005 -.00589362637989611 .003864604516808355 -1 0 0 0 -698296267768627e-29 1
 .003 16 349 1399 0 ?174 351 352 348 0 0 1 31 350 1725 0 351 348 353 0 +.005 -.0
0589362637989606 -.00386460451680844 -1 0 0 0 -698296267768627e-29 1 .003 16 351
 1403 0 ?232 354 349 350 0 0 1 31 353 1724 0 354 350 355 0 +.005 0 0 -1 0 0 0 -6
98296267768627e-29 1 .005624 16 354 1406 0 ?230 356 351 353 0 0 1 31 355 1723 0
 321 353 357 0 +0 -.00589362637989611 .003864604516808355 -1 0 0 0 -698296267768
627e-29 1 .003 16 321 1410 0 ?358 352 319 355 0 0 1 31 357 1720 0 352 355 359 0
 +0 0 0 -1 0 0 0 -698296267768627e-29 1 .005624 16 352 1429 0 ?360 349 321 357 0
 0 1 30 359 1719 0 356 357 361 0 +.005 -.00555410974453518 .000883878354559769 -
1 0 0 16 356 1409 0 ?362 363 354 359 0 0 1 30 361 1718 0 363 359 364 0 +.005 -.0
0555410974453517 -.000883878354559847 -1 0 0 16 363 1432 0 ?226 365 356 361 0 0
 1 31 364 1715 0 366 361 367 0 +.005 -.00249648635890962 .00659071739926096 -1 0
 0 0 .587785252292469 .809016994374951 .003 16 366 1492 0 ?186 368 369 364 0 0 1
 31 367 1713 0 368 364 370 0 +.005 -.00703960144075529 .0003376559379885825 -1 0
 0 0 .587785252292469 .809016994374951 .003 16 368 1496 0 ?223 371 366 367 0 0 1
 31 370 1712 0 371 367 372 0 +.005 0 0 -1 0 0 0 .587785252292469 .80901699437495
1 .005624 16 371 1499 0 ?221 373 368 370 0 0 1 31 372 1711 0 365 370 374 0 +0 -.
00249648635890962 .00659071739926096 -1 0 0 0 .587785252292469 .809016994374951
 .003 16 365 1503 0 ?375 369 363 372 0 0 1 31 374 1708 0 369 372 376 0 +0 0 0 -1
 0 0 0 .587785252292469 .809016994374951 .005624 16 369 1522 0 ?377 366 365 374
 0 0 1 30 376 1707 0 373 374 378 0 +.005 -.003973838510321685 .00397969640725072
 -1 0 0 16 373 1502 0 ?379 380 371 376 0 0 1 30 378 1706 0 380 376 381 0 +.005 -
.00501289983358326 .002549551187652615 -1 0 0 16 380 1525 0 ?217 382 373 378 0 0
 1 31 381 1703 0 383 378 384 0 +.005 .00549668801849869 .00441094330097723 -1 0
 0 0 .951056516295155 -.309016994374945 .003 16 383 1213 0 ?150 385 386 381 0 0
 1 31 384 1701 0 385 381 387 0 +.005 -.00185422659872994 .00679940024544116 -1 0
 0 0 .951056516295155 -.309016994374945 .003 16 385 1217 0 ?214 388 383 384 0 0
 1 31 387 1700 0 388 384 389 0 +.005 0 0 -1 0 0 0 .951056516295155 -.30901699437
4945 .005624 16 388 1220 0 ?212 390 385 387 0 0 1 31 389 1699 0 391 387 392 0 +0
 .00549668801849869 .00441094330097723 -1 0 0 0 .951056516295155 -.3090169943749
45 .003 16 391 1224 0 ?393 386 394 389 0 0 1 31 392 1696 0 386 389 395 0 +0 0 0
 -1 0 0 0 .951056516295155 -.309016994374945 .005624 16 386 1243 0 ?396 383 391
 392 0 0 1 30 395 1695 0 390 392 397 0 +.005 .002556932568401195 .00500913883223
945 -1 0 0 16 390 1223 0 ?398 399 388 395 0 0 1 30 397 1694 0 399 395 400 0 +.00
5 .000875696030968508 .00555540569727774 -1 0 0 16 399 1246 0 ?209 401 390 397 0
 0 1 31 400 1691 0 402 397 403 0 +.005 .00185422659872989 .00679940024544118 -1
 0 0 0 .951056516295152 .3090169943749515 .003 16 402 1306 0 ?162 404 405 400 0
 0 1 31 403 1689 0 404 400 406 0 +.005 -.00549668801849872 .00441094330097719 -1
 0 0 0 .951056516295152 .3090169943749515 .003 16 404 1310 0 ?207 407 402 403 0
 0 1 31 406 1688 0 407 403 408 0 +.005 0 0 -1 0 0 0 .951056516295152 .3090169943
749515 .005624 16 407 1313 0 ?204 409 404 406 0 0 1 31 408 1687 0 382 406 410 0
 +0 .00185422659872989 .00679940024544118 -1 0 0 0 .951056516295152 .30901699437
49515 .003 16 382 1317 0 ?411 405 380 408 0 0 1 31 410 1684 0 405 408 412 0 +0 0
 0 -1 0 0 0 .951056516295152 .3090169943749515 .005624 16 405 1336 0 ?413 402 38
2 410 0 0 1 30 412 1683 0 409 410 414 0 +.005 -.000875696030968549 .005555405697
27774 -1 0 0 16 409 1316 0 ?415 394 407 412 0 0 1 30 414 1682 0 394 412 416 0 +.
005 -.002556932568401235 .00500913883223944 -1 0 0 16 394 1339 0 ?199 391 409 41
4 0 0 1 30 416 1679 0 401 414 417 0 -.0025 -.00849993211952507 .0029582349405458
05 -1 0 0 16 401 1520 0 ?192 418 399 416 0 0 1 30 417 1678 0 418 416 419 0 +.002
5 -.00544007209290489 .00716977096035831 -1 0 0 16 418 1509 0 ?189 420 401 417 0
 0 1 30 419 1677 0 420 417 421 0 -.0025 -.00861539640659836 -.002602872405088625
 -1 0 0 16 420 1427 0 ?180 422 418 419 0 0 1 30 421 1676 0 422 419 423 0 +.0025
 -.0086153964065984 .002602872405088505 -1 0 0 16 422 1416 0 ?177 424 420 421 0
 0 1 30 423 1675 0 424 421 425 0 -.0025 -.00513778266486011 .00738939708559926 -
1 0 0 16 424 1334 0 ?168 426 422 423 0 0 1 30 425 1674 0 426 423 427 0 +.0025 -.
0001868251409714745 .0089980607003232 -1 0 0 16 426 1323 0 ?165 428 424 425 0 0
 1 30 427 1673 0 428 425 429 0 -.0025 .00018682514097141 .0089980607003232 -1 0
 0 16 428 1241 0 ?156 430 426 427 0 0 1 30 429 1672 0 430 427 431 0 +.0025 .0051
3778266486005 .0073893970855993 -1 0 0 16 430 1230 0 ?153 275 428 429 0 0 1 30 4
31 1671 0 275 429 432 0 -.0025 -.0001868251409713485 -.0089980607003232 -1 0 0 1
6 275 1148 0 ?144 433 430 431 0 0 1 30 432 1670 0 433 431 434 0 +.0025 -.0051377
8266486001 -.00738939708559933 -1 0 0 16 433 1137 0 ?141 435 275 432 0 0 1 30 43
4 1669 0 435 432 436 0 -.0025 -.00544007209290478 -.00716977096035839 -1 0 0 16
 435 1055 0 ?132 437 433 434 0 0 1 30 436 1668 0 437 434 438 0 +.0025 -.00849993
211952502 -.00295823494054593 -1 0 0 16 437 1044 0 ?129 439 435 436 0 0 1 30 438
 1667 0 439 436 440 0 -.0025 .00849993211952509 -.00295823494054574 -1 0 0 16 43
9 962 0 ?120 441 437 438 0 0 1 30 440 1666 0 441 438 442 0 +.0025 .0054400720929
0494 -.00716977096035827 -1 0 0 16 441 951 0 ?33 443 439 440 0 0 1 30 442 1665 0
 443 440 444 0 -.0025 .00513778266486016 -.00738939708559923 -1 0 0 16 443 869 0
 ?110 445 441 442 0 0 1 30 444 1664 0 445 442 446 0 +.0025 .0001868251409715375
 -.0089980607003232 -1 0 0 16 445 858 0 ?25 447 443 444 0 0 1 31 446 438 0 448 4
44 449 0 +.005 .00703960144075529 .0003376559379886315 -1 0 0 0 .587785252292474
 -.809016994374947 .003 16 448 323 0 ?84 450 451 446 0 0 1 31 449 436 0 450 446
 452 0 +.005 .00249648635890957 .00659071739926098 -1 0 0 0 .587785252292474 -.8
09016994374947 .003 16 450 327 0 ?103 453 448 449 0 0 1 31 452 435 0 453 449 454
 0 +.005 0 0 -1 0 0 0 .587785252292474 -.809016994374947 .005624 16 453 330 0 ?1
01 455 450 452 0 0 1 31 454 434 0 447 452 456 0 +0 .00703960144075529 .000337655
9379886315 -1 0 0 0 .587785252292474 -.809016994374947 .003 16 447 334 0 ?457 45
1 445 454 0 0 1 31 456 431 0 451 454 458 0 +0 0 0 -1 0 0 0 .587785252292474 -.80
9016994374947 .005624 16 451 353 0 ?459 448 447 456 0 0 1 30 458 430 0 455 456 4
60 0 +.005 .00501289983358325 .00254955118765265 -1 0 0 16 455 333 0 ?461 462 45
3 458 0 0 1 30 460 429 0 462 458 463 0 +.005 .00397383851032166 .003979696407250
75 -1 0 0 16 462 356 0 ?97 464 455 460 0 0 1 30 463 426 0 464 460 465 0 -.0025 .
00544007209290484 .00716977096035835 -1 0 0 16 464 351 0 ?466 467 462 463 0 0 1
 30 465 425 0 467 463 468 0 +.0025 .00849993211952504 .00295823494054587 -1 0 0
 16 467 340 0 ?87 469 464 465 0 0 1 31 468 246 0 470 465 471 0 +.005 .0058936263
7989609 -.003864604516808395 -1 0 0 0 0 -1 .003 16 470 131 0 ?63 472 473 468 0 0
 1 31 471 244 0 472 468 474 0 +.005 .00589362637989609 .003864604516808395 -1 0
 0 0 0 -1 .003 16 472 135 0 ?82 475 470 471 0 0 1 31 474 243 0 475 471 476 0 +.0
05 0 0 -1 0 0 0 0 -1 .005624 16 475 138 0 ?80 477 472 474 0 0 1 31 476 242 0 469
 474 478 0 +0 .00589362637989609 -.003864604516808395 -1 0 0 0 0 -1 .003 16 469
 142 0 ?479 473 467 476 0 0 1 31 478 239 0 473 476 480 0 +0 0 0 -1 0 0 0 0 -1 .0
05624 16 473 161 0 ?481 470 469 478 0 0 1 30 480 238 0 477 478 482 0 +.005 .0055
5410974453518 -.000883878354559808 -1 0 0 16 477 141 0 ?483 484 475 480 0 0 1 30
 482 237 0 484 480 485 0 +.005 .00555410974453518 .000883878354559808 -1 0 0 16
 484 164 0 ?76 486 477 482 0 0 1 30 485 234 0 486 482 487 0 -.0025 .008615396406
59838 .002602872405088565 -1 0 0 16 486 159 0 ?488 489 484 485 0 0 1 30 487 233
 0 489 485 490 0 +.0025 .00861539640659838 -.002602872405088565 -1 0 0 16 489 14
8 0 ?66 491 486 487 0 0 1 31 490 59 0 492 487 493 0 +0 0 0 -1 0 0 0 0 1 .009 16
 492 90 0 ?494 495 496 490 497 491 1 31 493 60 0 498 490 499 0 +.005 0 0 -1 0 0
 0 0 1 .009 16 498 109 0 ?500 501 502 493 503 495 1 31 499 100 0 501 493 504 0 +
0 .00589362637989609 .003864604516808395 1 0 0 0 0 -1 .003 16 501 99 0 ?505 506
 498 499 0 0 1 31 504 288 0 506 499 507 0 +0 .00249648635890957 .006590717399260
98 1 0 0 0 0 -1 .003 16 506 287 0 ?508 509 501 504 0 0 1 31 507 512 0 509 504 51
0 0 +0 -.00703960144075529 .0003376559379885825 1 0 0 0 0 -1 .003 16 509 511 0 ?
195 511 506 507 0 0 1 31 510 526 0 511 507 512 0 +0 -.00589362637989606 -.003864
60451680844 1 0 0 0 0 -1 .003 16 511 525 0 ?183 513 509 510 0 0 1 31 512 540 0 5
13 510 514 0 +0 -.00549668801849872 .00441094330097719 1 0 0 0 0 -1 .003 16 513
 539 0 ?171 515 511 512 0 0 1 31 514 554 0 515 512 516 0 +0 -.00185422659872994
 .00679940024544116 1 0 0 0 0 -1 .003 16 515 553 0 ?159 517 513 514 0 0 1 31 516
 568 0 517 514 518 0 +0 .001854226598729985 -.00679940024544115 1 0 0 0 0 -1 .00
3 16 517 567 0 ?147 519 515 516 0 0 1 31 518 582 0 519 516 520 0 +0 -.0024964863
58909525 -.00659071739926099 1 0 0 0 0 -1 .003 16 519 581 0 ?135 20 517 518 0 0
 1 31 520 596 0 20 518 16 0 +0 .00703960144075529 -.0003376559379885295 1 0 0 0
 0 -1 .003 16 20 595 0 ?123 9 519 520 0 0 1 31 16 610 0 9 520 6 0 +0 .0054966880
1849875 -.00441094330097715 1 0 0 0 0 -1 .003 17 123 0 521 120 246 121 522 20 0
 523 +15 521 1003 0 120 524 0 17 120 0 521 251 123 118 523 439 0 525 +17 246 0 5
21 123 251 244 526 334 0 527 +17 522 0 528 332 494 244 123 20 0 0 -17 523 0 529
 530 500 121 120 439 0 494 -15 529 713 0 523 531 0 17 530 0 529 532 523 64 494 4
92 0 0 -17 500 0 529 523 532 118 533 498 0 0 +17 494 0 528 522 479 121 530 492 0
 0 +15 528 612 0 26 534 0 17 479 0 528 494 481 64 60 469 0 530 +17 481 0 528 479
 535 58 536 473 0 0 +17 60 0 537 538 66 58 479 469 0 483 -15 537 196 0 66 539 0
 17 538 0 537 63 60 73 483 477 0 540 -17 66 0 537 60 63 64 532 489 0 479 +17 483
 0 541 536 80 58 538 477 0 481 +15 541 216 0 536 542 0 17 536 0 541 543 483 74 4
81 473 0 535 -17 80 0 541 483 543 73 544 475 0 538 +17 543 0 541 80 536 77 76 48
4 0 544 -17 544 0 276 545 540 77 80 475 0 0 -17 545 0 276 546 544 67 82 472 0 0
 -17 540 0 276 544 533 73 63 470 0 0 -17 533 0 276 540 525 61 500 498 0 0 -17 63
 0 537 66 538 61 540 470 0 532 +17 532 0 529 500 530 61 66 489 0 533 -17 525 0 2
76 533 547 118 251 324 0 500 -17 547 0 276 525 548 247 249 327 0 0 -17 251 0 521
 246 120 247 525 324 0 526 +17 526 0 549 249 527 247 246 334 0 547 -15 549 1019
 0 527 550 0 17 249 0 549 36 526 237 547 327 0 32 +17 527 0 549 526 36 244 332 3
25 0 522 -17 36 0 549 527 249 22 32 329 0 332 +17 332 0 528 34 522 22 527 325 0
 0 +17 34 0 528 551 332 116 29 35 0 552 +17 551 0 528 553 34 111 552 496 0 0 +17
 552 0 554 555 556 116 551 496 0 0 -15 554 721 0 556 557 0 17 555 0 554 558 552
 113 33 441 0 559 -17 556 0 554 552 558 111 110 443 0 551 -16 496 460 0 ?551 492
 560 490 491 560 1 16 560 466 0 ?561 496 562 490 496 562 1 16 491 278 0 ?72 497
 489 490 492 496 1 17 72 0 528 535 457 70 563 491 0 505 +16 497 502 0 ?93 564 49
1 490 564 492 1 17 93 0 528 565 393 91 566 497 0 508 +16 564 496 0 ?567 568 497
 490 568 497 1 17 567 0 528 569 411 157 570 564 0 0 +16 568 490 0 ?571 572 564 4
90 572 564 1 17 571 0 528 573 375 169 574 568 0 0 +16 572 484 0 ?575 576 568 490
 576 568 1 17 575 0 528 577 358 193 578 572 0 0 +16 576 478 0 ?579 562 572 490 5
62 572 1 17 579 0 528 580 314 181 581 576 0 0 +16 562 472 0 ?582 560 576 490 560
 576 1 17 582 0 528 583 302 133 584 562 0 0 +17 583 0 528 316 582 252 135 519 0
 0 -17 302 0 528 582 287 139 42 300 0 584 +17 584 0 585 586 587 139 582 562 0 0
 -15 585 705 0 587 588 0 17 586 0 585 589 584 136 141 433 0 295 -17 587 0 585 58
4 589 133 132 435 0 582 -17 589 0 585 587 586 130 295 590 0 0 +17 132 0 591 260
 135 130 587 435 0 592 +15 591 1096 0 132 593 0 17 260 0 591 254 132 255 592 307
 0 594 +17 135 0 591 132 254 133 583 519 0 587 +17 592 0 276 295 595 130 260 307
 0 589 -17 295 0 276 293 592 136 589 590 0 0 -17 595 0 276 592 596 255 258 310 0
 0 -17 596 0 276 595 597 228 126 305 0 0 -17 258 0 598 318 594 228 595 310 0 599
 +15 598 1112 0 600 601 0 17 318 0 598 600 258 30 599 312 0 316 +17 594 0 598 25
8 600 255 254 319 0 595 -17 599 0 602 126 37 228 318 312 0 596 -15 602 1092 0 12
9 603 0 17 126 0 602 129 599 124 596 305 0 604 +17 37 0 602 599 129 30 314 290 0
 318 -17 129 0 602 37 126 127 604 437 0 314 +17 314 0 528 579 316 127 37 290 0 5
81 +17 316 0 528 314 583 30 600 308 0 0 +17 581 0 605 604 606 127 579 576 0 0 -1
5 605 709 0 604 607 0 17 604 0 605 608 581 124 129 437 0 597 -17 606 0 605 581 6
08 181 180 420 0 579 -17 608 0 605 606 604 178 597 609 0 0 +17 180 0 610 232 183
 178 606 420 0 611 +15 610 1468 0 180 612 0 17 232 0 610 226 180 227 611 351 0 6
13 +17 183 0 610 180 226 181 580 511 0 606 +17 611 0 276 597 614 178 232 351 0 6
08 -17 597 0 276 596 611 124 608 609 0 0 -17 614 0 276 611 615 227 230 354 0 0 -
17 615 0 276 614 616 219 174 349 0 0 -17 230 0 617 362 613 219 614 354 0 618 +15
 617 1484 0 619 620 0 17 362 0 617 619 230 49 618 356 0 360 +17 613 0 617 230 61
9 227 226 363 0 614 -17 618 0 621 174 51 219 362 356 0 615 -15 621 1464 0 177 62
2 0 17 174 0 621 177 618 172 615 349 0 623 +17 51 0 621 618 177 49 358 321 0 362
 -17 177 0 621 51 174 175 623 422 0 358 +17 358 0 528 575 360 175 51 321 0 578 +
17 360 0 528 358 580 49 619 352 0 0 +17 578 0 624 623 625 175 575 572 0 0 -15 62
4 677 0 623 626 0 17 623 0 624 627 578 172 177 422 0 616 -17 625 0 624 578 627 1
93 192 401 0 575 -17 627 0 624 625 623 190 616 628 0 0 +17 192 0 629 223 195 190
 625 401 0 630 +15 629 1561 0 192 631 0 17 223 0 629 217 192 218 630 368 0 632 +
17 195 0 629 192 217 193 577 509 0 625 +17 630 0 276 616 633 190 223 368 0 627 -
17 616 0 276 615 630 172 627 628 0 0 -17 633 0 276 630 634 218 221 371 0 0 -17 6
34 0 276 633 635 201 186 366 0 0 -17 221 0 636 379 632 201 633 371 0 637 +15 636
 1577 0 638 639 0 17 379 0 636 638 221 52 637 373 0 377 +17 632 0 636 221 638 21
8 217 380 0 633 -17 637 0 640 186 54 201 379 373 0 634 -15 640 1557 0 189 641 0
 17 186 0 640 189 637 184 634 366 0 642 +17 54 0 640 637 189 52 375 365 0 379 -1
7 189 0 640 54 186 187 642 418 0 375 +17 375 0 528 571 377 187 54 365 0 574 +17
 377 0 528 375 577 52 638 369 0 0 +17 574 0 643 642 644 187 571 568 0 0 -15 643
 681 0 644 645 0 17 642 0 643 646 574 184 189 418 0 635 -17 644 0 643 574 646 16
9 168 424 0 571 -17 646 0 643 644 642 166 635 647 0 0 +17 168 0 648 207 171 166
 644 424 0 649 +15 648 1375 0 168 650 0 17 207 0 648 199 168 200 649 404 0 651 +
17 171 0 648 168 199 169 573 513 0 644 +17 649 0 276 635 652 166 207 404 0 646 -
17 635 0 276 634 649 184 646 647 0 0 -17 652 0 276 649 653 200 204 407 0 0 -17 6
53 0 276 652 654 202 162 402 0 0 -17 204 0 655 415 651 202 652 407 0 656 +15 655
 1391 0 657 658 0 17 415 0 655 657 204 46 656 409 0 413 +17 651 0 655 204 657 20
0 199 394 0 652 -17 656 0 659 162 48 202 415 409 0 653 -15 659 1371 0 165 660 0
 17 162 0 659 165 656 160 653 402 0 661 +17 48 0 659 656 165 46 411 382 0 415 -1
7 165 0 659 48 162 163 661 426 0 411 +17 411 0 528 567 413 163 48 382 0 570 +17
 413 0 528 411 573 46 657 405 0 0 +17 570 0 662 661 663 163 567 564 0 0 -15 662
 689 0 663 664 0 17 661 0 662 665 570 160 165 426 0 654 -17 663 0 662 570 665 15
7 156 428 0 567 -17 665 0 662 663 661 154 654 666 0 0 +17 156 0 667 214 159 154
 663 428 0 668 +15 667 1282 0 156 669 0 17 214 0 667 209 156 210 668 385 0 670 +
17 159 0 667 156 209 157 569 515 0 663 +17 668 0 276 654 671 154 214 385 0 665 -
17 654 0 276 653 668 160 665 666 0 0 -17 671 0 276 668 672 210 212 388 0 0 -17 6
72 0 276 671 673 196 150 383 0 0 -17 212 0 674 398 670 196 671 388 0 675 +15 674
 1298 0 676 677 0 17 398 0 674 676 212 43 675 390 0 396 +17 670 0 674 212 676 21
0 209 399 0 671 -17 675 0 678 150 45 196 398 390 0 672 -15 678 1278 0 153 679 0
 17 150 0 678 153 675 148 672 383 0 680 +17 45 0 678 675 153 43 393 391 0 398 -1
7 153 0 678 45 150 151 680 430 0 393 +17 393 0 528 93 396 151 45 391 0 566 +17 3
96 0 528 393 569 43 676 386 0 0 +17 566 0 681 680 682 151 93 497 0 0 -15 681 693
 0 680 683 0 17 680 0 681 90 566 148 153 430 0 673 -17 682 0 681 566 90 91 466 4
64 0 0 -17 90 0 681 682 680 88 673 503 0 466 +17 466 0 684 103 508 88 682 464 0
 685 +15 684 392 0 466 686 0 17 103 0 684 97 466 98 685 450 0 687 +17 508 0 684
 466 97 91 565 506 0 682 +17 685 0 276 673 688 88 103 450 0 0 -17 673 0 276 672
 685 148 90 503 0 0 -17 688 0 276 685 689 98 101 453 0 0 -17 689 0 276 688 546 9
4 84 448 0 0 -17 101 0 690 461 687 94 688 453 0 691 +15 690 408 0 692 693 0 17 4
61 0 690 692 101 55 691 455 0 459 +17 687 0 690 101 692 98 97 462 0 688 -17 691
 0 694 84 57 94 461 455 0 689 -15 694 388 0 87 695 0 17 84 0 694 87 691 78 689 4
48 0 696 +17 57 0 694 691 87 55 457 447 0 461 -17 87 0 694 57 84 85 696 467 0 45
7 +17 457 0 528 72 459 85 57 447 0 563 +17 459 0 528 457 565 55 692 451 0 0 +17
 563 0 697 696 698 85 72 491 0 0 -15 697 305 0 696 699 0 17 696 0 697 69 563 78
 87 467 0 546 -17 698 0 697 563 69 70 488 486 0 0 -17 69 0 697 698 696 67 546 49
5 0 488 +17 488 0 700 82 505 67 698 486 0 545 +15 700 200 0 488 701 0 17 82 0 70
0 76 488 77 545 472 0 543 +17 505 0 700 488 76 70 535 501 0 698 +17 76 0 700 505
 82 74 543 484 0 536 +17 535 0 528 481 72 74 505 501 0 0 -14 255 701 197 702 ?54
2 539 700 4 703 +0 0 542 539 18 81 255 1 702 4715 704 701 705 0 0 706 707 14 542
 213 706 ?695 701 541 4 708 +0 0 695 701 18 14 539 193 709 ?701 699 537 4 710 +0
 0 701 699 18 51 255 703 227 0 701 708 710 0 +.005 .00589362637989609 .003864604
516808395 -1 0 0 .003 0 0 1 13 18 32 0 0 0 0 0 0 8 12 14 12 838 711 ?712 0 713 4
 5 -0 0 712 0 18 81 1 711 4718 704 12 714 0 709 715 716 14 712 726 715 ?557 12 7
17 4 14 -557 699 557 12 18 15 713 2171 0 718 12 276 17 718 0 713 718 718 0 719 7
20 0 0 -17 719 0 721 719 719 0 718 720 0 0 +16 720 2182 0 ?719 15 0 722 0 0 1 16
 15 2177 0 ?723 35 720 6 0 0 1 31 722 2211 0 720 0 299 0 +.005 0 0 1 0 0 0 0 -1
 .00105 31 299 1775 0 281 722 282 0 +.005 -.00549668801849866 -.0044109433009772
65 -1 0 0 0 -.951056516295157 .3090169943749385 .003 16 281 1120 0 ?138 269 288
 299 0 0 1 17 138 0 724 141 286 136 293 281 0 586 +15 724 1185 0 141 725 0 17 14
1 0 724 42 138 139 586 433 0 302 +17 286 0 724 138 42 256 285 291 0 293 -17 42 0
 724 286 141 38 302 300 0 285 -17 285 0 283 273 265 38 286 291 0 287 +17 287 0 5
28 302 289 38 273 288 0 0 +17 289 0 528 287 561 241 147 517 0 0 -17 561 0 528 28
9 26 145 726 560 0 0 +17 147 0 267 144 262 145 289 517 0 274 +17 274 0 717 726 2
79 145 144 275 0 561 -15 717 725 0 727 712 0 17 726 0 717 727 274 106 561 560 0
 0 -17 279 0 717 274 727 142 277 728 0 0 +17 727 0 717 279 726 99 25 445 0 277 -
17 277 0 276 294 268 99 279 728 0 0 -16 728 626 0 ?279 502 590 493 502 590 1 16
 502 620 0 ?558 498 728 493 495 728 1 16 590 632 0 ?589 728 609 493 728 609 1 16
 609 638 0 ?608 590 628 493 590 628 1 16 628 644 0 ?627 609 647 493 609 647 1 16
 647 650 0 ?646 628 666 493 628 666 1 16 666 656 0 ?665 647 503 493 647 503 1 16
 503 662 0 ?90 666 495 493 666 498 1 16 495 298 0 ?69 503 492 493 498 502 1 17 5
58 0 554 556 555 108 559 502 0 0 +17 559 0 276 548 729 113 558 502 0 0 -17 548 0
 276 547 559 237 115 322 0 0 -17 729 0 276 559 730 108 243 338 0 558 -17 730 0 2
76 729 294 236 240 341 0 0 -17 243 0 731 235 110 236 729 338 0 732 +15 731 910 0
 110 733 0 17 235 0 731 19 243 233 732 303 0 734 +17 110 0 731 243 19 108 556 44
3 0 729 +17 732 0 735 240 734 236 235 303 0 730 -15 735 926 0 734 736 0 17 240 0
 735 28 732 238 730 341 0 24 +17 734 0 735 732 28 233 346 339 0 553 -17 28 0 735
 734 240 10 24 343 0 346 +17 346 0 528 26 553 10 734 339 0 0 +17 553 0 528 346 5
51 233 19 9 0 0 -17 19 0 731 110 235 111 553 9 0 556 +17 26 0 528 561 346 106 21
 27 0 726 +17 24 0 23 105 21 238 28 343 0 294 -15 23 906 0 25 737 0 17 105 0 23
 25 24 99 294 336 0 727 +17 294 0 276 730 277 238 105 336 0 0 -17 25 0 23 21 105
 106 727 445 0 26 +14 737 903 738 ?733 550 23 4 739 +0 0 733 550 18 81 1 738 472
0 704 737 740 0 715 741 742 14 733 907 741 ?736 737 731 4 743 +0 0 736 737 18 14
 550 1016 744 ?737 524 549 4 745 +0 0 737 524 18 51 739 1624 0 737 743 746 0 +.0
05 -.00185422659872984 -.00679940024544119 -1 0 0 .003 0 0 1 51 743 1626 0 733 7
47 739 0 +.005 .00549668801849875 -.00441094330097715 -1 0 0 .003 0 0 1 51 746 1
621 0 620 739 748 0 +.005 0 0 -1 0 0 .005624 0 0 1 14 620 1481 749 ?660 612 617
 4 746 +0 0 660 612 18 51 748 1620 0 612 746 750 0 +.005 -.00589362637989606 -.0
0386460451680844 -1 0 0 .003 0 0 1 14 612 1465 751 ?620 622 610 4 748 +0 0 620 6
22 18 51 750 1618 0 622 748 752 0 +.005 -.00589362637989611 .003864604516808355
 -1 0 0 .003 0 0 1 14 622 1461 753 ?612 639 621 4 750 +0 0 612 639 18 51 752 161
5 0 639 750 754 0 +.005 0 0 -1 0 0 .005624 0 0 1 14 639 1574 755 ?622 631 636 4
 752 +0 0 622 631 18 51 754 1614 0 631 752 756 0 +.005 -.00703960144075529 .0003
376559379885825 -1 0 0 .003 0 0 1 14 631 1558 757 ?639 641 629 4 754 +0 0 639 64
1 18 51 756 1612 0 641 754 758 0 +.005 -.00249648635890962 .00659071739926096 -1
 0 0 .003 0 0 1 14 641 1554 759 ?631 693 640 4 756 +0 0 631 693 18 51 758 1609 0
 677 756 760 0 +.005 0 0 -1 0 0 .005624 0 0 1 14 677 1295 761 ?725 669 674 4 758
 +0 0 725 669 18 51 760 1608 0 669 758 762 0 +.005 -.00185422659872994 .00679940
024544116 -1 0 0 .003 0 0 1 14 669 1279 763 ?677 679 667 4 760 +0 0 677 679 18 5
1 762 1606 0 679 760 764 0 +.005 .00549668801849869 .00441094330097723 -1 0 0 .0
03 0 0 1 14 679 1275 765 ?669 658 678 4 762 +0 0 669 658 18 51 764 1603 0 658 76
2 766 0 +.005 0 0 -1 0 0 .005624 0 0 1 14 658 1388 767 ?679 650 655 4 764 +0 0 6
79 650 18 51 766 1602 0 650 764 768 0 +.005 -.00549668801849872 .004410943300977
19 -1 0 0 .003 0 0 1 14 650 1372 769 ?658 660 648 4 766 +0 0 658 660 18 51 768 1
600 0 660 766 770 0 +.005 .00185422659872989 .00679940024544118 -1 0 0 .003 0 0
 1 14 660 1368 771 ?650 620 659 4 768 +0 0 650 620 18 51 770 420 0 693 768 772 0
 +.005 0 0 -1 0 0 .005624 0 0 1 14 693 405 773 ?641 686 690 4 770 +0 0 641 686 1
8 51 772 419 0 686 770 774 0 +.005 .00249648635890957 .00659071739926098 -1 0 0
 .003 0 0 1 14 686 389 775 ?693 695 684 4 772 +0 0 693 695 18 51 774 417 0 695 7
72 708 0 +.005 .00703960144075529 .0003376559379886315 -1 0 0 .003 0 0 1 14 695
 385 776 ?686 542 694 4 774 +0 0 686 542 18 51 708 228 0 542 774 703 0 +.005 0 0
 -1 0 0 .005624 0 0 1 81 1 776 4737 704 695 777 0 775 778 779 80 255 1 704 780 7
81 9000 1 1 1 1 1 1 1 1 0 FFFFTFTFFFFFFF1 81 1 777 4599 782 695 0 776 783 784 78
5 81 1 775 4736 704 686 784 0 773 776 786 81 1 778 4738 704 725 787 0 776 788 78
9 82 255 1 779 -559086241 14 725 1182 778 ?271 677 724 4 790 +0 0 271 677 18 81
 1 787 4614 782 725 0 778 791 792 793 81 1 788 4739 704 271 792 0 778 794 795 82
 1 789 -524941985 14 271 1186 788 ?284 725 267 4 796 +0 0 284 725 18 81 1 792 46
15 782 271 0 788 787 797 798 81 1 794 4740 704 284 797 0 788 799 800 82 1 795 -5
26383777 14 284 1202 794 ?603 271 283 4 801 +0 0 603 271 18 81 1 797 4616 782 28
4 0 794 792 802 803 81 1 799 4741 704 603 802 0 794 804 805 82 1 800 -613874337
 14 603 1089 799 ?593 284 602 4 806 +0 0 593 284 18 81 1 802 4617 782 603 0 799
 797 807 808 81 1 804 4742 704 593 807 0 799 809 810 82 1 805 -522058401 14 593
 1093 804 ?601 603 591 4 811 +0 0 601 603 18 81 1 807 4618 782 593 0 804 802 812
 813 81 1 809 4743 704 601 812 0 804 814 815 82 1 810 -523500193 14 601 1109 809
 ?816 593 598 4 817 +0 0 816 593 18 81 1 812 4619 782 601 0 809 807 818 819 81 1
 814 4744 704 816 818 0 809 820 821 82 1 815 -635435681 14 816 996 814 ?524 601
 31 4 822 +0 0 524 601 18 81 1 818 4620 782 816 0 814 812 823 824 81 1 820 4745
 704 524 823 0 814 825 826 82 1 821 -519174817 14 524 1000 820 ?550 816 521 4 82
7 +0 0 550 816 18 81 1 823 4621 782 524 0 820 818 828 829 81 1 825 4746 704 736
 830 0 820 831 832 82 1 826 -520616609 14 736 923 825 ?833 733 735 4 747 +0 0 83
3 733 18 81 1 830 4625 782 736 0 825 834 835 836 81 1 831 4747 704 534 837 0 825
 838 839 82 1 832 -592312993 14 534 614 831 ?699 626 840 4 841 -0 0 699 626 18 8
1 1 837 4594 782 534 0 831 842 843 844 81 1 838 4748 704 833 835 0 831 845 846 8
2 1 839 -539294364 14 833 2185 838 ?0 736 721 4 847 -0 0 0 736 18 81 1 835 4626
 782 833 0 838 830 0 848 81 1 845 4749 704 699 843 0 838 849 850 82 1 846 -38417
0652 14 699 306 845 ?539 534 697 4 14 -712 626 539 534 18 81 1 843 4595 782 699
 0 845 837 851 852 81 1 849 4750 704 557 853 0 845 854 855 82 1 850 -557578913 1
4 557 722 849 ?531 712 554 4 14 -531 712 531 712 18 81 1 853 4586 782 557 0 849
 856 857 858 81 1 854 4751 704 531 857 0 849 859 860 82 1 855 -505084577 14 531
 714 854 ?607 557 529 4 14 -607 557 607 557 18 81 1 857 4587 782 531 0 854 853 8
61 862 81 1 859 4752 704 607 861 0 854 863 864 82 1 860 -505871009 14 607 710 85
9 ?588 531 605 4 14 -588 531 588 531 18 81 1 861 4588 782 607 0 859 857 865 866
 81 1 863 4753 704 588 865 0 859 867 868 82 1 864 -506264225 14 588 706 863 ?683
 607 585 4 14 -683 607 683 607 18 81 1 865 4589 782 588 0 863 861 869 870 81 1 8
67 4754 704 683 869 0 863 871 872 82 1 868 -506657441 14 683 694 867 ?664 588 68
1 4 14 -664 588 664 588 18 81 1 869 4590 782 683 0 867 865 873 874 81 1 871 4755
 704 664 873 0 867 875 876 82 1 872 -507837089 14 664 690 871 ?645 683 662 4 14
 -645 683 645 683 18 81 1 873 4591 782 664 0 871 869 877 878 81 1 875 4756 704 6
45 877 0 871 879 880 82 1 876 -508230305 14 645 682 875 ?626 664 643 4 14 -626 6
64 626 664 18 81 1 877 4592 782 645 0 875 873 842 881 81 1 879 4757 704 626 842
 0 875 0 882 82 1 880 -509016737 14 626 678 879 ?534 645 624 4 14 -699 645 534 6
45 18 81 1 842 4593 782 626 0 879 877 837 883 82 1 882 -509409953 80 1 782 0 884
 8001 0 0 0 0 3 5 0 0 0 FFFFTFTFFFFFFF2 83 255 3 883 .776470588235294 .756862745
098039 .737254901960784 79 255 15 884 SDL/TYSA_COLOUR51 14 57 0 699 841 5 0 --.0
1 0 0 -1 0 0 .009 0 0 1 50 841 56 0 534 710 14 0 +0 0 0 1 0 0 0 0 -1 51 710 225
 0 539 703 841 0 +.005 .00589362637989609 -.003864604516808395 -1 0 0 .003 0 0 1
 83 3 881 .776470588235294 .756862745098039 .737254901960784 83 3 878 .776470588
235294 .756862745098039 .737254901960784 83 3 874 .776470588235294 .756862745098
039 .737254901960784 83 3 870 .776470588235294 .756862745098039 .737254901960784
 83 3 866 .776470588235294 .756862745098039 .737254901960784 83 3 862 .776470588
235294 .756862745098039 .737254901960784 81 1 856 4585 782 712 0 715 714 853 885
 83 3 858 .776470588235294 .756862745098039 .737254901960784 81 1 715 4719 704 7
12 856 0 711 738 886 81 1 714 4584 782 12 0 711 0 856 887 83 3 885 .776470588235
294 .756862745098039 .737254901960784 83 3 887 .776470588235294 .756862745098039
 .737254901960784 82 1 886 -504691361 81 1 851 4596 782 539 0 709 843 705 888 83
 3 852 .776470588235294 .756862745098039 .737254901960784 81 1 709 4717 704 539
 851 0 706 711 889 81 1 705 4597 782 701 0 702 851 783 890 83 3 888 .77647058823
5294 .756862745098039 .737254901960784 81 1 783 4598 782 542 0 706 705 777 891 8
3 3 890 .776470588235294 .756862745098039 .737254901960784 81 1 706 4716 704 542
 783 0 702 709 892 83 3 891 .776470588235294 .756862745098039 .737254901960784 8
2 1 892 -782105250 82 1 889 -774437538 83 3 848 .776470588235294 .75686274509803
9 .737254901960784 15 721 2188 0 719 833 893 51 847 2207 0 833 0 801 0 +-.005 0
 0 1 0 0 .00105 0 0 -1 51 801 1645 0 284 847 796 0 +.005 0 0 -1 0 0 .005624 0 0
 1 51 796 1644 0 271 801 790 0 +.005 .001854226598729985 -.00679940024544115 -1
 0 0 .003 0 0 1 51 790 1642 0 725 796 817 0 +.005 -.00549668801849866 -.00441094
3300977265 -1 0 0 .003 0 0 1 51 817 1639 0 601 790 811 0 +.005 0 0 -1 0 0 .00562
4 0 0 1 51 811 1638 0 593 817 806 0 +.005 -.002496486358909525 -.006590717399260
99 -1 0 0 .003 0 0 1 51 806 1636 0 603 811 745 0 +.005 -.00703960144075529 -.000
337655937988684 -1 0 0 .003 0 0 1 51 745 1633 0 550 806 827 0 +.005 0 0 -1 0 0 .
005624 0 0 1 51 827 1632 0 524 745 822 0 +.005 .00703960144075529 -.000337655937
9885295 -1 0 0 .003 0 0 1 51 822 1630 0 816 827 747 0 +.005 .002496486358909665
 -.00659071739926094 -1 0 0 .003 0 0 1 51 747 1627 0 736 822 743 0 +.005 0 0 -1
 0 0 .005624 0 0 1 15 893 2189 0 894 833 0 17 894 0 893 894 894 0 723 15 0 0 -17
 723 0 840 723 723 0 894 15 0 0 +15 840 2165 0 723 534 528 83 3 844 .77647058823
5294 .756862745098039 .737254901960784 81 1 834 4624 782 733 0 741 740 830 895 8
3 3 836 .776470588235294 .756862745098039 .737254901960784 81 1 741 4721 704 733
 834 0 738 744 896 81 1 740 4623 782 737 0 738 828 834 897 83 3 895 .77647058823
5294 .756862745098039 .737254901960784 81 1 828 4622 782 550 0 744 823 740 898 8
3 3 897 .776470588235294 .756862745098039 .737254901960784 81 1 744 4722 704 550
 828 0 741 749 899 83 3 898 .776470588235294 .756862745098039 .737254901960784 8
1 1 749 4723 704 620 900 0 744 751 901 82 1 899 -570751649 81 1 900 4607 782 620
 0 749 902 903 904 81 1 751 4724 704 612 902 0 749 753 905 82 1 901 -656997025 8
1 1 902 4606 782 612 0 751 906 900 907 81 1 753 4725 704 622 906 0 751 755 908 8
2 1 905 -535034529 81 1 906 4605 782 622 0 753 909 902 910 81 1 755 4726 704 639
 909 0 753 757 911 82 1 908 -533592737 81 1 909 4604 782 639 0 755 912 906 913 8
1 1 757 4727 704 631 912 0 755 759 914 82 1 911 -678558369 81 1 912 4603 782 631
 0 757 915 909 916 81 1 759 4728 704 641 915 0 757 761 917 82 1 914 -537918113 8
1 1 915 4602 782 641 0 759 918 912 919 81 1 761 4729 704 677 791 0 759 763 920 8
2 1 917 -536476321 81 1 791 4613 782 677 0 761 921 787 922 81 1 763 4730 704 669
 921 0 761 765 923 82 1 920 -721681057 81 1 921 4612 782 669 0 763 924 791 925 8
1 1 765 4731 704 679 924 0 763 767 926 82 1 923 -529267361 81 1 924 4611 782 679
 0 765 927 921 928 81 1 767 4732 704 658 927 0 765 769 929 82 1 926 -527825569 8
1 1 927 4610 782 658 0 767 930 924 931 81 1 769 4733 704 650 930 0 767 771 932 8
2 1 929 -700119713 81 1 930 4609 782 650 0 769 903 927 933 81 1 771 4734 704 660
 903 0 769 773 934 82 1 932 -532150945 81 1 903 4608 782 660 0 771 900 930 935 8
1 1 773 4735 704 693 918 0 771 775 936 82 1 934 -530709153 81 1 918 4601 782 693
 0 773 784 915 937 82 1 936 -751434401 81 1 784 4600 782 686 0 775 777 918 938 8
3 3 937 .776470588235294 .756862745098039 .737254901960784 83 3 938 .77647058823
5294 .756862745098039 .737254901960784 83 3 935 .776470588235294 .75686274509803
9 .737254901960784 83 3 933 .776470588235294 .756862745098039 .737254901960784 8
3 3 931 .776470588235294 .756862745098039 .737254901960784 83 3 928 .77647058823
5294 .756862745098039 .737254901960784 83 3 925 .776470588235294 .75686274509803
9 .737254901960784 83 3 922 .776470588235294 .756862745098039 .737254901960784 8
3 3 919 .776470588235294 .756862745098039 .737254901960784 83 3 916 .77647058823
5294 .756862745098039 .737254901960784 83 3 913 .776470588235294 .75686274509803
9 .737254901960784 83 3 910 .776470588235294 .756862745098039 .737254901960784 8
3 3 907 .776470588235294 .756862745098039 .737254901960784 83 3 904 .77647058823
5294 .756862745098039 .737254901960784 82 1 896 -517733025 83 3 829 .77647058823
5294 .756862745098039 .737254901960784 83 3 824 .776470588235294 .75686274509803
9 .737254901960784 15 31 999 0 33 816 0 17 33 0 31 29 115 116 555 441 0 34 +17 1
15 0 31 33 32 113 548 322 0 555 +17 32 0 31 115 29 237 36 329 0 548 -83 3 819 .7
76470588235294 .756862745098039 .737254901960784 83 3 813 .776470588235294 .7568
62745098039 .737254901960784 83 3 808 .776470588235294 .756862745098039 .7372549
01960784 83 3 803 .776470588235294 .756862745098039 .737254901960784 83 3 798 .7
76470588235294 .756862745098039 .737254901960784 83 3 793 .776470588235294 .7568
62745098039 .737254901960784 82 1 786 -560528033 83 3 785 .776470588235294 .7568
62745098039 .737254901960784 79 14 781 SWEntUnchanged82 1 742 -516291233 82 1 71
6 -486865564 82 1 707 -775879330 17 546 0 276 689 545 78 69 495 0 0 -17 565 0 52
8 459 93 95 508 506 0 0 -17 692 0 690 687 461 95 459 451 0 565 -17 97 0 684 508
 103 95 687 462 0 692 +17 569 0 528 396 567 205 159 515 0 0 -17 676 0 674 670 39
8 205 396 386 0 569 -17 209 0 667 159 214 205 670 399 0 676 +17 573 0 528 413 57
1 197 171 513 0 0 -17 657 0 655 651 415 197 413 405 0 573 -17 199 0 648 171 207
 197 651 394 0 657 +17 577 0 528 377 575 215 195 509 0 0 -17 638 0 636 632 379 2
15 377 369 0 577 -17 217 0 629 195 223 215 632 380 0 638 +17 580 0 528 360 579 2
24 183 511 0 0 -17 619 0 617 613 362 224 360 352 0 580 -17 226 0 610 183 232 224
 613 363 0 619 +17 600 0 598 594 318 252 316 308 0 583 -17 254 0 591 135 260 252
 594 319 0 600 +19 13 28 0 1 0 8 4 S0 74 4 CI16 index_map_offset0 0 1 dCCZ20 11
 2 0 0 879 835 0 0 0 0 0 0 0 0 0 0 0 0 0 0 0 0 0 0 1 0 
